<svg xmlns="http://www.w3.org/2000/svg" width="1600" height="300" viewBox="0 0 1600 300" preserveAspectRatio="xMidYMax meet"><rect x="46" y="6" width="8" height="8" fill="#111111"/><rect x="86" y="6" width="8" height="8" fill="#111111"/><rect x="146" y="6" width="8" height="8" fill="#111111"/><rect x="206" y="6" width="8" height="8" fill="#111111"/><rect x="266" y="6" width="8" height="8" fill="#111111"/><rect x="426" y="6" width="8" height="8" fill="#111111"/><rect x="506" y="6" width="8" height="8" fill="#111111"/><rect x="566" y="6" width="8" height="8" fill="#111111"/><rect x="626" y="6" width="8" height="8" fill="#111111"/><rect x="646" y="6" width="8" height="8" fill="#111111"/><rect x="766" y="6" width="8" height="8" fill="#111111"/><rect x="806" y="6" width="8" height="8" fill="#111111"/><rect x="886" y="6" width="8" height="8" fill="#111111"/><rect x="906" y="6" width="8" height="8" fill="#111111"/><rect x="946" y="6" width="8" height="8" fill="#111111"/><rect x="1026" y="6" width="8" height="8" fill="#111111"/><rect x="1086" y="6" width="8" height="8" fill="#111111"/><rect x="1106" y="6" width="8" height="8" fill="#111111"/><rect x="1146" y="6" width="8" height="8" fill="#111111"/><rect x="1246" y="6" width="8" height="8" fill="#111111"/><rect x="1266" y="6" width="8" height="8" fill="#111111"/><rect x="1286" y="6" width="8" height="8" fill="#111111"/><rect x="1306" y="6" width="8" height="8" fill="#111111"/><rect x="1326" y="6" width="8" height="8" fill="#111111"/><rect x="1346" y="6" width="8" height="8" fill="#111111"/><rect x="1386" y="6" width="8" height="8" fill="#111111"/><rect x="1426" y="6" width="8" height="8" fill="#111111"/><rect x="1466" y="6" width="8" height="8" fill="#111111"/><rect x="1506" y="6" width="8" height="8" fill="#111111"/><rect x="1566" y="6" width="8" height="8" fill="#111111"/><rect x="26" y="26" width="8" height="8" fill="#111111"/><rect x="46" y="26" width="8" height="8" fill="#111111"/><rect x="266" y="26" width="8" height="8" fill="#111111"/><rect x="346" y="26" width="8" height="8" fill="#111111"/><rect x="366" y="26" width="8" height="8" fill="#111111"/><rect x="586" y="26" width="8" height="8" fill="#111111"/><rect x="666" y="26" width="8" height="8" fill="#111111"/><rect x="686" y="26" width="8" height="8" fill="#111111"/><rect x="806" y="26" width="8" height="8" fill="#111111"/><rect x="886" y="26" width="8" height="8" fill="#111111"/><rect x="906" y="26" width="8" height="8" fill="#111111"/><rect x="1006" y="26" width="8" height="8" fill="#111111"/><rect x="1026" y="26" width="8" height="8" fill="#111111"/><rect x="1066" y="26" width="8" height="8" fill="#111111"/><rect x="1086" y="26" width="8" height="8" fill="#111111"/><rect x="1106" y="26" width="8" height="8" fill="#111111"/><rect x="1126" y="26" width="8" height="8" fill="#111111"/><rect x="1166" y="26" width="8" height="8" fill="#111111"/><rect x="1186" y="26" width="8" height="8" fill="#111111"/><rect x="1226" y="26" width="8" height="8" fill="#111111"/><rect x="1446" y="26" width="8" height="8" fill="#111111"/><rect x="1466" y="26" width="8" height="8" fill="#111111"/><rect x="1486" y="26" width="8" height="8" fill="#111111"/><rect x="1526" y="26" width="8" height="8" fill="#111111"/><rect x="1566" y="26" width="8" height="8" fill="#111111"/><rect x="66" y="46" width="8" height="8" fill="#111111"/><rect x="86" y="46" width="8" height="8" fill="#111111"/><rect x="226" y="46" width="8" height="8" fill="#111111"/><rect x="246" y="46" width="8" height="8" fill="#111111"/><rect x="286" y="46" width="8" height="8" fill="#111111"/><rect x="346" y="46" width="8" height="8" fill="#111111"/><rect x="446" y="46" width="8" height="8" fill="#111111"/><rect x="506" y="46" width="8" height="8" fill="#111111"/><rect x="546" y="46" width="8" height="8" fill="#111111"/><rect x="566" y="46" width="8" height="8" fill="#111111"/><rect x="626" y="46" width="8" height="8" fill="#111111"/><rect x="646" y="46" width="8" height="8" fill="#111111"/><rect x="666" y="46" width="8" height="8" fill="#111111"/><rect x="686" y="46" width="8" height="8" fill="#111111"/><rect x="766" y="46" width="8" height="8" fill="#111111"/><rect x="806" y="46" width="8" height="8" fill="#111111"/><rect x="866" y="46" width="8" height="8" fill="#111111"/><rect x="886" y="46" width="8" height="8" fill="#111111"/><rect x="946" y="46" width="8" height="8" fill="#111111"/><rect x="1006" y="46" width="8" height="8" fill="#111111"/><rect x="1026" y="46" width="8" height="8" fill="#111111"/><rect x="1046" y="46" width="8" height="8" fill="#111111"/><rect x="1166" y="46" width="8" height="8" fill="#111111"/><rect x="1206" y="46" width="8" height="8" fill="#111111"/><rect x="1226" y="46" width="8" height="8" fill="#111111"/><rect x="1306" y="46" width="8" height="8" fill="#111111"/><rect x="1326" y="46" width="8" height="8" fill="#111111"/><rect x="1366" y="46" width="8" height="8" fill="#111111"/><rect x="1446" y="46" width="8" height="8" fill="#111111"/><rect x="1486" y="46" width="8" height="8" fill="#111111"/><rect x="46" y="66" width="8" height="8" fill="#111111"/><rect x="66" y="66" width="8" height="8" fill="#111111"/><rect x="86" y="66" width="8" height="8" fill="#111111"/><rect x="166" y="66" width="8" height="8" fill="#111111"/><rect x="246" y="66" width="8" height="8" fill="#111111"/><rect x="266" y="66" width="8" height="8" fill="#111111"/><rect x="326" y="66" width="8" height="8" fill="#111111"/><rect x="386" y="66" width="8" height="8" fill="#111111"/><rect x="426" y="66" width="8" height="8" fill="#111111"/><rect x="446" y="66" width="8" height="8" fill="#111111"/><rect x="466" y="66" width="8" height="8" fill="#111111"/><rect x="486" y="66" width="8" height="8" fill="#111111"/><rect x="526" y="66" width="8" height="8" fill="#111111"/><rect x="546" y="66" width="8" height="8" fill="#111111"/><rect x="566" y="66" width="8" height="8" fill="#111111"/><rect x="606" y="66" width="8" height="8" fill="#111111"/><rect x="626" y="66" width="8" height="8" fill="#111111"/><rect x="646" y="66" width="8" height="8" fill="#111111"/><rect x="666" y="66" width="8" height="8" fill="#111111"/><rect x="746" y="66" width="8" height="8" fill="#111111"/><rect x="826" y="66" width="8" height="8" fill="#111111"/><rect x="866" y="66" width="8" height="8" fill="#111111"/><rect x="946" y="66" width="8" height="8" fill="#111111"/><rect x="966" y="66" width="8" height="8" fill="#111111"/><rect x="986" y="66" width="8" height="8" fill="#111111"/><rect x="1006" y="66" width="8" height="8" fill="#111111"/><rect x="1106" y="66" width="8" height="8" fill="#111111"/><rect x="1186" y="66" width="8" height="8" fill="#111111"/><rect x="1206" y="66" width="8" height="8" fill="#111111"/><rect x="1226" y="66" width="8" height="8" fill="#111111"/><rect x="1246" y="66" width="8" height="8" fill="#111111"/><rect x="1366" y="66" width="8" height="8" fill="#111111"/><rect x="1386" y="66" width="8" height="8" fill="#111111"/><rect x="1426" y="66" width="8" height="8" fill="#111111"/><rect x="1446" y="66" width="8" height="8" fill="#111111"/><rect x="1466" y="66" width="8" height="8" fill="#111111"/><rect x="1506" y="66" width="8" height="8" fill="#111111"/><rect x="1546" y="66" width="8" height="8" fill="#111111"/><rect x="1566" y="66" width="8" height="8" fill="#111111"/><rect x="1586" y="66" width="8" height="8" fill="#111111"/><rect x="6" y="86" width="8" height="8" fill="#111111"/><rect x="26" y="86" width="8" height="8" fill="#111111"/><rect x="46" y="86" width="8" height="8" fill="#111111"/><rect x="106" y="86" width="8" height="8" fill="#111111"/><rect x="166" y="86" width="8" height="8" fill="#111111"/><rect x="226" y="86" width="8" height="8" fill="#111111"/><rect x="266" y="86" width="8" height="8" fill="#111111"/><rect x="346" y="86" width="8" height="8" fill="#111111"/><rect x="406" y="86" width="8" height="8" fill="#111111"/><rect x="466" y="86" width="8" height="8" fill="#111111"/><rect x="506" y="86" width="8" height="8" fill="#111111"/><rect x="566" y="86" width="8" height="8" fill="#111111"/><rect x="646" y="86" width="8" height="8" fill="#111111"/><rect x="666" y="86" width="8" height="8" fill="#111111"/><rect x="686" y="86" width="8" height="8" fill="#111111"/><rect x="706" y="86" width="8" height="8" fill="#111111"/><rect x="866" y="86" width="8" height="8" fill="#111111"/><rect x="906" y="86" width="8" height="8" fill="#111111"/><rect x="1026" y="86" width="8" height="8" fill="#111111"/><rect x="1046" y="86" width="8" height="8" fill="#111111"/><rect x="1106" y="86" width="8" height="8" fill="#111111"/><rect x="1166" y="86" width="8" height="8" fill="#111111"/><rect x="1186" y="86" width="8" height="8" fill="#111111"/><rect x="1226" y="86" width="8" height="8" fill="#111111"/><rect x="1246" y="86" width="8" height="8" fill="#111111"/><rect x="1286" y="86" width="8" height="8" fill="#111111"/><rect x="1306" y="86" width="8" height="8" fill="#111111"/><rect x="1366" y="86" width="8" height="8" fill="#111111"/><rect x="1386" y="86" width="8" height="8" fill="#111111"/><rect x="1406" y="86" width="8" height="8" fill="#111111"/><rect x="1446" y="86" width="8" height="8" fill="#111111"/><rect x="1466" y="86" width="8" height="8" fill="#111111"/><rect x="1486" y="86" width="8" height="8" fill="#111111"/><rect x="1506" y="86" width="8" height="8" fill="#111111"/><rect x="1526" y="86" width="8" height="8" fill="#111111"/><rect x="1586" y="86" width="8" height="8" fill="#111111"/><rect x="46" y="106" width="8" height="8" fill="#111111"/><rect x="86" y="106" width="8" height="8" fill="#111111"/><rect x="106" y="106" width="8" height="8" fill="#111111"/><rect x="126" y="106" width="8" height="8" fill="#111111"/><rect x="146" y="106" width="8" height="8" fill="#111111"/><rect x="166" y="106" width="8" height="8" fill="#111111"/><rect x="226" y="106" width="8" height="8" fill="#111111"/><rect x="246" y="106" width="8" height="8" fill="#111111"/><rect x="266" y="106" width="8" height="8" fill="#111111"/><rect x="346" y="106" width="8" height="8" fill="#111111"/><rect x="366" y="106" width="8" height="8" fill="#111111"/><rect x="426" y="106" width="8" height="8" fill="#111111"/><rect x="446" y="106" width="8" height="8" fill="#111111"/><rect x="566" y="106" width="8" height="8" fill="#111111"/><rect x="586" y="106" width="8" height="8" fill="#111111"/><rect x="626" y="106" width="8" height="8" fill="#111111"/><rect x="646" y="106" width="8" height="8" fill="#111111"/><rect x="826" y="106" width="8" height="8" fill="#111111"/><rect x="846" y="106" width="8" height="8" fill="#111111"/><rect x="866" y="106" width="8" height="8" fill="#111111"/><rect x="926" y="106" width="8" height="8" fill="#111111"/><rect x="946" y="106" width="8" height="8" fill="#111111"/><rect x="986" y="106" width="8" height="8" fill="#111111"/><rect x="1006" y="106" width="8" height="8" fill="#111111"/><rect x="1086" y="106" width="8" height="8" fill="#111111"/><rect x="1106" y="106" width="8" height="8" fill="#111111"/><rect x="1126" y="106" width="8" height="8" fill="#111111"/><rect x="1146" y="106" width="8" height="8" fill="#111111"/><rect x="1166" y="106" width="8" height="8" fill="#111111"/><rect x="1226" y="106" width="8" height="8" fill="#111111"/><rect x="1246" y="106" width="8" height="8" fill="#111111"/><rect x="1266" y="106" width="8" height="8" fill="#111111"/><rect x="1286" y="106" width="8" height="8" fill="#111111"/><rect x="1306" y="106" width="8" height="8" fill="#111111"/><rect x="1326" y="106" width="8" height="8" fill="#111111"/><rect x="1366" y="106" width="8" height="8" fill="#111111"/><rect x="1406" y="106" width="8" height="8" fill="#111111"/><rect x="1446" y="106" width="8" height="8" fill="#111111"/><rect x="1466" y="106" width="8" height="8" fill="#111111"/><rect x="1526" y="106" width="8" height="8" fill="#111111"/><rect x="1546" y="106" width="8" height="8" fill="#111111"/><rect x="6" y="126" width="8" height="8" fill="#111111"/><rect x="46" y="126" width="8" height="8" fill="#111111"/><rect x="146" y="126" width="8" height="8" fill="#111111"/><rect x="206" y="126" width="8" height="8" fill="#111111"/><rect x="246" y="126" width="8" height="8" fill="#111111"/><rect x="326" y="126" width="8" height="8" fill="#111111"/><rect x="346" y="126" width="8" height="8" fill="#111111"/><rect x="366" y="126" width="8" height="8" fill="#111111"/><rect x="386" y="126" width="8" height="8" fill="#111111"/><rect x="426" y="126" width="8" height="8" fill="#111111"/><rect x="446" y="126" width="8" height="8" fill="#111111"/><rect x="506" y="126" width="8" height="8" fill="#111111"/><rect x="586" y="126" width="8" height="8" fill="#111111"/><rect x="606" y="126" width="8" height="8" fill="#111111"/><rect x="626" y="126" width="8" height="8" fill="#111111"/><rect x="646" y="126" width="8" height="8" fill="#111111"/><rect x="666" y="126" width="8" height="8" fill="#111111"/><rect x="706" y="126" width="8" height="8" fill="#111111"/><rect x="726" y="126" width="8" height="8" fill="#111111"/><rect x="766" y="126" width="8" height="8" fill="#111111"/><rect x="786" y="126" width="8" height="8" fill="#111111"/><rect x="806" y="126" width="8" height="8" fill="#111111"/><rect x="826" y="126" width="8" height="8" fill="#111111"/><rect x="886" y="126" width="8" height="8" fill="#111111"/><rect x="926" y="126" width="8" height="8" fill="#111111"/><rect x="1006" y="126" width="8" height="8" fill="#111111"/><rect x="1026" y="126" width="8" height="8" fill="#111111"/><rect x="1046" y="126" width="8" height="8" fill="#111111"/><rect x="1066" y="126" width="8" height="8" fill="#111111"/><rect x="1106" y="126" width="8" height="8" fill="#111111"/><rect x="1126" y="126" width="8" height="8" fill="#111111"/><rect x="1186" y="126" width="8" height="8" fill="#111111"/><rect x="1206" y="126" width="8" height="8" fill="#111111"/><rect x="1226" y="126" width="8" height="8" fill="#111111"/><rect x="1286" y="126" width="8" height="8" fill="#111111"/><rect x="1326" y="126" width="8" height="8" fill="#111111"/><rect x="1346" y="126" width="8" height="8" fill="#111111"/><rect x="1366" y="126" width="8" height="8" fill="#111111"/><rect x="1386" y="126" width="8" height="8" fill="#111111"/><rect x="1406" y="126" width="8" height="8" fill="#111111"/><rect x="1446" y="126" width="8" height="8" fill="#111111"/><rect x="1486" y="126" width="8" height="8" fill="#111111"/><rect x="1506" y="126" width="8" height="8" fill="#111111"/><rect x="1586" y="126" width="8" height="8" fill="#111111"/><rect x="6" y="146" width="8" height="8" fill="#111111"/><rect x="26" y="146" width="8" height="8" fill="#111111"/><rect x="86" y="146" width="8" height="8" fill="#111111"/><rect x="126" y="146" width="8" height="8" fill="#111111"/><rect x="146" y="146" width="8" height="8" fill="#111111"/><rect x="166" y="146" width="8" height="8" fill="#111111"/><rect x="206" y="146" width="8" height="8" fill="#111111"/><rect x="226" y="146" width="8" height="8" fill="#111111"/><rect x="266" y="146" width="8" height="8" fill="#111111"/><rect x="286" y="146" width="8" height="8" fill="#111111"/><rect x="306" y="146" width="8" height="8" fill="#111111"/><rect x="346" y="146" width="8" height="8" fill="#111111"/><rect x="366" y="146" width="8" height="8" fill="#111111"/><rect x="386" y="146" width="8" height="8" fill="#111111"/><rect x="466" y="146" width="8" height="8" fill="#111111"/><rect x="486" y="146" width="8" height="8" fill="#111111"/><rect x="506" y="146" width="8" height="8" fill="#111111"/><rect x="526" y="146" width="8" height="8" fill="#111111"/><rect x="546" y="146" width="8" height="8" fill="#111111"/><rect x="566" y="146" width="8" height="8" fill="#111111"/><rect x="586" y="146" width="8" height="8" fill="#111111"/><rect x="606" y="146" width="8" height="8" fill="#111111"/><rect x="626" y="146" width="8" height="8" fill="#111111"/><rect x="646" y="146" width="8" height="8" fill="#111111"/><rect x="666" y="146" width="8" height="8" fill="#111111"/><rect x="706" y="146" width="8" height="8" fill="#111111"/><rect x="746" y="146" width="8" height="8" fill="#111111"/><rect x="766" y="146" width="8" height="8" fill="#111111"/><rect x="786" y="146" width="8" height="8" fill="#111111"/><rect x="806" y="146" width="8" height="8" fill="#111111"/><rect x="826" y="146" width="8" height="8" fill="#111111"/><rect x="886" y="146" width="8" height="8" fill="#111111"/><rect x="906" y="146" width="8" height="8" fill="#111111"/><rect x="946" y="146" width="8" height="8" fill="#111111"/><rect x="1006" y="146" width="8" height="8" fill="#111111"/><rect x="1026" y="146" width="8" height="8" fill="#111111"/><rect x="1106" y="146" width="8" height="8" fill="#111111"/><rect x="1226" y="146" width="8" height="8" fill="#111111"/><rect x="1326" y="146" width="8" height="8" fill="#111111"/><rect x="1366" y="146" width="8" height="8" fill="#111111"/><rect x="1386" y="146" width="8" height="8" fill="#111111"/><rect x="1406" y="146" width="8" height="8" fill="#111111"/><rect x="1426" y="146" width="8" height="8" fill="#111111"/><rect x="1526" y="146" width="8" height="8" fill="#111111"/><rect x="1546" y="146" width="8" height="8" fill="#111111"/><rect x="1566" y="146" width="8" height="8" fill="#111111"/><rect x="6" y="166" width="8" height="8" fill="#111111"/><rect x="26" y="166" width="8" height="8" fill="#111111"/><rect x="66" y="166" width="8" height="8" fill="#111111"/><rect x="106" y="166" width="8" height="8" fill="#111111"/><rect x="146" y="166" width="8" height="8" fill="#111111"/><rect x="166" y="166" width="8" height="8" fill="#111111"/><rect x="186" y="166" width="8" height="8" fill="#111111"/><rect x="206" y="166" width="8" height="8" fill="#111111"/><rect x="246" y="166" width="8" height="8" fill="#111111"/><rect x="286" y="166" width="8" height="8" fill="#111111"/><rect x="306" y="166" width="8" height="8" fill="#111111"/><rect x="346" y="166" width="8" height="8" fill="#111111"/><rect x="366" y="166" width="8" height="8" fill="#111111"/><rect x="386" y="166" width="8" height="8" fill="#111111"/><rect x="426" y="166" width="8" height="8" fill="#111111"/><rect x="466" y="166" width="8" height="8" fill="#111111"/><rect x="486" y="166" width="8" height="8" fill="#111111"/><rect x="506" y="166" width="8" height="8" fill="#111111"/><rect x="546" y="166" width="8" height="8" fill="#111111"/><rect x="566" y="166" width="8" height="8" fill="#111111"/><rect x="586" y="166" width="8" height="8" fill="#111111"/><rect x="646" y="166" width="8" height="8" fill="#111111"/><rect x="666" y="166" width="8" height="8" fill="#111111"/><rect x="686" y="166" width="8" height="8" fill="#111111"/><rect x="706" y="166" width="8" height="8" fill="#111111"/><rect x="726" y="166" width="8" height="8" fill="#111111"/><rect x="746" y="166" width="8" height="8" fill="#111111"/><rect x="766" y="166" width="8" height="8" fill="#111111"/><rect x="786" y="166" width="8" height="8" fill="#111111"/><rect x="806" y="166" width="8" height="8" fill="#111111"/><rect x="886" y="166" width="8" height="8" fill="#111111"/><rect x="906" y="166" width="8" height="8" fill="#111111"/><rect x="926" y="166" width="8" height="8" fill="#111111"/><rect x="946" y="166" width="8" height="8" fill="#111111"/><rect x="986" y="166" width="8" height="8" fill="#111111"/><rect x="1006" y="166" width="8" height="8" fill="#111111"/><rect x="1026" y="166" width="8" height="8" fill="#111111"/><rect x="1046" y="166" width="8" height="8" fill="#111111"/><rect x="1126" y="166" width="8" height="8" fill="#111111"/><rect x="1146" y="166" width="8" height="8" fill="#111111"/><rect x="1166" y="166" width="8" height="8" fill="#111111"/><rect x="1186" y="166" width="8" height="8" fill="#111111"/><rect x="1206" y="166" width="8" height="8" fill="#111111"/><rect x="1226" y="166" width="8" height="8" fill="#111111"/><rect x="1266" y="166" width="8" height="8" fill="#111111"/><rect x="1286" y="166" width="8" height="8" fill="#111111"/><rect x="1306" y="166" width="8" height="8" fill="#111111"/><rect x="1326" y="166" width="8" height="8" fill="#111111"/><rect x="1386" y="166" width="8" height="8" fill="#111111"/><rect x="1446" y="166" width="8" height="8" fill="#111111"/><rect x="1466" y="166" width="8" height="8" fill="#111111"/><rect x="1486" y="166" width="8" height="8" fill="#111111"/><rect x="1506" y="166" width="8" height="8" fill="#111111"/><rect x="1546" y="166" width="8" height="8" fill="#111111"/><rect x="1586" y="166" width="8" height="8" fill="#111111"/><rect x="6" y="186" width="8" height="8" fill="#111111"/><rect x="26" y="186" width="8" height="8" fill="#111111"/><rect x="46" y="186" width="8" height="8" fill="#111111"/><rect x="66" y="186" width="8" height="8" fill="#111111"/><rect x="106" y="186" width="8" height="8" fill="#111111"/><rect x="126" y="186" width="8" height="8" fill="#111111"/><rect x="146" y="186" width="8" height="8" fill="#111111"/><rect x="166" y="186" width="8" height="8" fill="#111111"/><rect x="186" y="186" width="8" height="8" fill="#111111"/><rect x="206" y="186" width="8" height="8" fill="#111111"/><rect x="226" y="186" width="8" height="8" fill="#111111"/><rect x="246" y="186" width="8" height="8" fill="#111111"/><rect x="286" y="186" width="8" height="8" fill="#111111"/><rect x="306" y="186" width="8" height="8" fill="#111111"/><rect x="326" y="186" width="8" height="8" fill="#111111"/><rect x="366" y="186" width="8" height="8" fill="#111111"/><rect x="386" y="186" width="8" height="8" fill="#111111"/><rect x="406" y="186" width="8" height="8" fill="#111111"/><rect x="466" y="186" width="8" height="8" fill="#111111"/><rect x="486" y="186" width="8" height="8" fill="#111111"/><rect x="506" y="186" width="8" height="8" fill="#111111"/><rect x="546" y="186" width="8" height="8" fill="#111111"/><rect x="566" y="186" width="8" height="8" fill="#111111"/><rect x="586" y="186" width="8" height="8" fill="#111111"/><rect x="606" y="186" width="8" height="8" fill="#111111"/><rect x="626" y="186" width="8" height="8" fill="#111111"/><rect x="666" y="186" width="8" height="8" fill="#111111"/><rect x="706" y="186" width="8" height="8" fill="#111111"/><rect x="726" y="186" width="8" height="8" fill="#111111"/><rect x="746" y="186" width="8" height="8" fill="#111111"/><rect x="766" y="186" width="8" height="8" fill="#111111"/><rect x="806" y="186" width="8" height="8" fill="#111111"/><rect x="826" y="186" width="8" height="8" fill="#111111"/><rect x="846" y="186" width="8" height="8" fill="#111111"/><rect x="866" y="186" width="8" height="8" fill="#111111"/><rect x="886" y="186" width="8" height="8" fill="#111111"/><rect x="906" y="186" width="8" height="8" fill="#111111"/><rect x="926" y="186" width="8" height="8" fill="#111111"/><rect x="966" y="186" width="8" height="8" fill="#111111"/><rect x="986" y="186" width="8" height="8" fill="#111111"/><rect x="1006" y="186" width="8" height="8" fill="#111111"/><rect x="1026" y="186" width="8" height="8" fill="#111111"/><rect x="1086" y="186" width="8" height="8" fill="#111111"/><rect x="1106" y="186" width="8" height="8" fill="#111111"/><rect x="1126" y="186" width="8" height="8" fill="#111111"/><rect x="1146" y="186" width="8" height="8" fill="#111111"/><rect x="1166" y="186" width="8" height="8" fill="#111111"/><rect x="1186" y="186" width="8" height="8" fill="#111111"/><rect x="1206" y="186" width="8" height="8" fill="#111111"/><rect x="1226" y="186" width="8" height="8" fill="#111111"/><rect x="1246" y="186" width="8" height="8" fill="#111111"/><rect x="1266" y="186" width="8" height="8" fill="#111111"/><rect x="1326" y="186" width="8" height="8" fill="#111111"/><rect x="1346" y="186" width="8" height="8" fill="#111111"/><rect x="1366" y="186" width="8" height="8" fill="#111111"/><rect x="1386" y="186" width="8" height="8" fill="#111111"/><rect x="1406" y="186" width="8" height="8" fill="#111111"/><rect x="1426" y="186" width="8" height="8" fill="#111111"/><rect x="1446" y="186" width="8" height="8" fill="#111111"/><rect x="1466" y="186" width="8" height="8" fill="#111111"/><rect x="1506" y="186" width="8" height="8" fill="#111111"/><rect x="1526" y="186" width="8" height="8" fill="#111111"/><rect x="1566" y="186" width="8" height="8" fill="#111111"/><rect x="1586" y="186" width="8" height="8" fill="#111111"/><rect x="6" y="206" width="8" height="8" fill="#111111"/><rect x="26" y="206" width="8" height="8" fill="#111111"/><rect x="46" y="206" width="8" height="8" fill="#111111"/><rect x="66" y="206" width="8" height="8" fill="#111111"/><rect x="86" y="206" width="8" height="8" fill="#111111"/><rect x="106" y="206" width="8" height="8" fill="#111111"/><rect x="146" y="206" width="8" height="8" fill="#111111"/><rect x="166" y="206" width="8" height="8" fill="#111111"/><rect x="206" y="206" width="8" height="8" fill="#111111"/><rect x="286" y="206" width="8" height="8" fill="#111111"/><rect x="326" y="206" width="8" height="8" fill="#111111"/><rect x="346" y="206" width="8" height="8" fill="#111111"/><rect x="366" y="206" width="8" height="8" fill="#111111"/><rect x="386" y="206" width="8" height="8" fill="#111111"/><rect x="426" y="206" width="8" height="8" fill="#111111"/><rect x="486" y="206" width="8" height="8" fill="#111111"/><rect x="506" y="206" width="8" height="8" fill="#111111"/><rect x="526" y="206" width="8" height="8" fill="#111111"/><rect x="546" y="206" width="8" height="8" fill="#111111"/><rect x="566" y="206" width="8" height="8" fill="#111111"/><rect x="606" y="206" width="8" height="8" fill="#111111"/><rect x="626" y="206" width="8" height="8" fill="#111111"/><rect x="646" y="206" width="8" height="8" fill="#111111"/><rect x="666" y="206" width="8" height="8" fill="#111111"/><rect x="706" y="206" width="8" height="8" fill="#111111"/><rect x="726" y="206" width="8" height="8" fill="#111111"/><rect x="786" y="206" width="8" height="8" fill="#111111"/><rect x="826" y="206" width="8" height="8" fill="#111111"/><rect x="846" y="206" width="8" height="8" fill="#111111"/><rect x="866" y="206" width="8" height="8" fill="#111111"/><rect x="906" y="206" width="8" height="8" fill="#111111"/><rect x="926" y="206" width="8" height="8" fill="#111111"/><rect x="946" y="206" width="8" height="8" fill="#111111"/><rect x="966" y="206" width="8" height="8" fill="#111111"/><rect x="986" y="206" width="8" height="8" fill="#111111"/><rect x="1006" y="206" width="8" height="8" fill="#111111"/><rect x="1126" y="206" width="8" height="8" fill="#111111"/><rect x="1146" y="206" width="8" height="8" fill="#111111"/><rect x="1166" y="206" width="8" height="8" fill="#111111"/><rect x="1186" y="206" width="8" height="8" fill="#111111"/><rect x="1206" y="206" width="8" height="8" fill="#111111"/><rect x="1226" y="206" width="8" height="8" fill="#111111"/><rect x="1246" y="206" width="8" height="8" fill="#111111"/><rect x="1266" y="206" width="8" height="8" fill="#111111"/><rect x="1286" y="206" width="8" height="8" fill="#111111"/><rect x="1306" y="206" width="8" height="8" fill="#111111"/><rect x="1326" y="206" width="8" height="8" fill="#111111"/><rect x="1346" y="206" width="8" height="8" fill="#111111"/><rect x="1366" y="206" width="8" height="8" fill="#111111"/><rect x="1386" y="206" width="8" height="8" fill="#111111"/><rect x="1406" y="206" width="8" height="8" fill="#111111"/><rect x="1426" y="206" width="8" height="8" fill="#111111"/><rect x="1466" y="206" width="8" height="8" fill="#111111"/><rect x="1486" y="206" width="8" height="8" fill="#111111"/><rect x="1506" y="206" width="8" height="8" fill="#111111"/><rect x="1566" y="206" width="8" height="8" fill="#111111"/><rect x="6" y="226" width="8" height="8" fill="#111111"/><rect x="26" y="226" width="8" height="8" fill="#111111"/><rect x="46" y="226" width="8" height="8" fill="#111111"/><rect x="66" y="226" width="8" height="8" fill="#111111"/><rect x="86" y="226" width="8" height="8" fill="#111111"/><rect x="166" y="226" width="8" height="8" fill="#111111"/><rect x="186" y="226" width="8" height="8" fill="#111111"/><rect x="206" y="226" width="8" height="8" fill="#111111"/><rect x="226" y="226" width="8" height="8" fill="#111111"/><rect x="266" y="226" width="8" height="8" fill="#111111"/><rect x="286" y="226" width="8" height="8" fill="#111111"/><rect x="326" y="226" width="8" height="8" fill="#111111"/><rect x="346" y="226" width="8" height="8" fill="#111111"/><rect x="366" y="226" width="8" height="8" fill="#111111"/><rect x="386" y="226" width="8" height="8" fill="#111111"/><rect x="406" y="226" width="8" height="8" fill="#111111"/><rect x="426" y="226" width="8" height="8" fill="#111111"/><rect x="446" y="226" width="8" height="8" fill="#111111"/><rect x="466" y="226" width="8" height="8" fill="#111111"/><rect x="486" y="226" width="8" height="8" fill="#111111"/><rect x="506" y="226" width="8" height="8" fill="#111111"/><rect x="526" y="226" width="8" height="8" fill="#111111"/><rect x="546" y="226" width="8" height="8" fill="#111111"/><rect x="566" y="226" width="8" height="8" fill="#111111"/><rect x="586" y="226" width="8" height="8" fill="#111111"/><rect x="606" y="226" width="8" height="8" fill="#111111"/><rect x="626" y="226" width="8" height="8" fill="#111111"/><rect x="646" y="226" width="8" height="8" fill="#111111"/><rect x="686" y="226" width="8" height="8" fill="#111111"/><rect x="706" y="226" width="8" height="8" fill="#111111"/><rect x="726" y="226" width="8" height="8" fill="#111111"/><rect x="746" y="226" width="8" height="8" fill="#111111"/><rect x="786" y="226" width="8" height="8" fill="#111111"/><rect x="806" y="226" width="8" height="8" fill="#111111"/><rect x="826" y="226" width="8" height="8" fill="#111111"/><rect x="866" y="226" width="8" height="8" fill="#111111"/><rect x="906" y="226" width="8" height="8" fill="#111111"/><rect x="926" y="226" width="8" height="8" fill="#111111"/><rect x="966" y="226" width="8" height="8" fill="#111111"/><rect x="986" y="226" width="8" height="8" fill="#111111"/><rect x="1006" y="226" width="8" height="8" fill="#111111"/><rect x="1026" y="226" width="8" height="8" fill="#111111"/><rect x="1046" y="226" width="8" height="8" fill="#111111"/><rect x="1066" y="226" width="8" height="8" fill="#111111"/><rect x="1086" y="226" width="8" height="8" fill="#111111"/><rect x="1106" y="226" width="8" height="8" fill="#111111"/><rect x="1126" y="226" width="8" height="8" fill="#111111"/><rect x="1146" y="226" width="8" height="8" fill="#111111"/><rect x="1186" y="226" width="8" height="8" fill="#111111"/><rect x="1206" y="226" width="8" height="8" fill="#111111"/><rect x="1226" y="226" width="8" height="8" fill="#111111"/><rect x="1246" y="226" width="8" height="8" fill="#111111"/><rect x="1266" y="226" width="8" height="8" fill="#111111"/><rect x="1286" y="226" width="8" height="8" fill="#111111"/><rect x="1306" y="226" width="8" height="8" fill="#111111"/><rect x="1326" y="226" width="8" height="8" fill="#111111"/><rect x="1346" y="226" width="8" height="8" fill="#111111"/><rect x="1366" y="226" width="8" height="8" fill="#111111"/><rect x="1386" y="226" width="8" height="8" fill="#111111"/><rect x="1406" y="226" width="8" height="8" fill="#111111"/><rect x="1426" y="226" width="8" height="8" fill="#111111"/><rect x="1446" y="226" width="8" height="8" fill="#111111"/><rect x="1466" y="226" width="8" height="8" fill="#111111"/><rect x="1486" y="226" width="8" height="8" fill="#111111"/><rect x="1526" y="226" width="8" height="8" fill="#111111"/><rect x="1546" y="226" width="8" height="8" fill="#111111"/><rect x="1566" y="226" width="8" height="8" fill="#111111"/><rect x="1586" y="226" width="8" height="8" fill="#111111"/><rect x="6" y="246" width="8" height="8" fill="#111111"/><rect x="26" y="246" width="8" height="8" fill="#111111"/><rect x="46" y="246" width="8" height="8" fill="#111111"/><rect x="66" y="246" width="8" height="8" fill="#111111"/><rect x="86" y="246" width="8" height="8" fill="#111111"/><rect x="146" y="246" width="8" height="8" fill="#111111"/><rect x="166" y="246" width="8" height="8" fill="#111111"/><rect x="186" y="246" width="8" height="8" fill="#111111"/><rect x="206" y="246" width="8" height="8" fill="#111111"/><rect x="226" y="246" width="8" height="8" fill="#111111"/><rect x="246" y="246" width="8" height="8" fill="#111111"/><rect x="266" y="246" width="8" height="8" fill="#111111"/><rect x="286" y="246" width="8" height="8" fill="#111111"/><rect x="306" y="246" width="8" height="8" fill="#111111"/><rect x="346" y="246" width="8" height="8" fill="#111111"/><rect x="366" y="246" width="8" height="8" fill="#111111"/><rect x="386" y="246" width="8" height="8" fill="#111111"/><rect x="406" y="246" width="8" height="8" fill="#111111"/><rect x="466" y="246" width="8" height="8" fill="#111111"/><rect x="486" y="246" width="8" height="8" fill="#111111"/><rect x="506" y="246" width="8" height="8" fill="#111111"/><rect x="566" y="246" width="8" height="8" fill="#111111"/><rect x="586" y="246" width="8" height="8" fill="#111111"/><rect x="606" y="246" width="8" height="8" fill="#111111"/><rect x="626" y="246" width="8" height="8" fill="#111111"/><rect x="646" y="246" width="8" height="8" fill="#111111"/><rect x="666" y="246" width="8" height="8" fill="#111111"/><rect x="686" y="246" width="8" height="8" fill="#111111"/><rect x="706" y="246" width="8" height="8" fill="#111111"/><rect x="726" y="246" width="8" height="8" fill="#111111"/><rect x="746" y="246" width="8" height="8" fill="#111111"/><rect x="786" y="246" width="8" height="8" fill="#111111"/><rect x="806" y="246" width="8" height="8" fill="#111111"/><rect x="826" y="246" width="8" height="8" fill="#111111"/><rect x="846" y="246" width="8" height="8" fill="#111111"/><rect x="866" y="246" width="8" height="8" fill="#111111"/><rect x="886" y="246" width="8" height="8" fill="#111111"/><rect x="906" y="246" width="8" height="8" fill="#111111"/><rect x="926" y="246" width="8" height="8" fill="#111111"/><rect x="946" y="246" width="8" height="8" fill="#111111"/><rect x="966" y="246" width="8" height="8" fill="#111111"/><rect x="986" y="246" width="8" height="8" fill="#111111"/><rect x="1006" y="246" width="8" height="8" fill="#111111"/><rect x="1026" y="246" width="8" height="8" fill="#111111"/><rect x="1046" y="246" width="8" height="8" fill="#111111"/><rect x="1066" y="246" width="8" height="8" fill="#111111"/><rect x="1086" y="246" width="8" height="8" fill="#111111"/><rect x="1106" y="246" width="8" height="8" fill="#111111"/><rect x="1126" y="246" width="8" height="8" fill="#111111"/><rect x="1146" y="246" width="8" height="8" fill="#111111"/><rect x="1166" y="246" width="8" height="8" fill="#111111"/><rect x="1186" y="246" width="8" height="8" fill="#111111"/><rect x="1206" y="246" width="8" height="8" fill="#111111"/><rect x="1226" y="246" width="8" height="8" fill="#111111"/><rect x="1246" y="246" width="8" height="8" fill="#111111"/><rect x="1266" y="246" width="8" height="8" fill="#111111"/><rect x="1286" y="246" width="8" height="8" fill="#111111"/><rect x="1306" y="246" width="8" height="8" fill="#111111"/><rect x="1326" y="246" width="8" height="8" fill="#111111"/><rect x="1386" y="246" width="8" height="8" fill="#111111"/><rect x="1406" y="246" width="8" height="8" fill="#111111"/><rect x="1426" y="246" width="8" height="8" fill="#111111"/><rect x="1446" y="246" width="8" height="8" fill="#111111"/><rect x="1486" y="246" width="8" height="8" fill="#111111"/><rect x="1506" y="246" width="8" height="8" fill="#111111"/><rect x="1526" y="246" width="8" height="8" fill="#111111"/><rect x="1546" y="246" width="8" height="8" fill="#111111"/><rect x="1566" y="246" width="8" height="8" fill="#111111"/><rect x="1586" y="246" width="8" height="8" fill="#111111"/><rect x="6" y="266" width="8" height="8" fill="#111111"/><rect x="46" y="266" width="8" height="8" fill="#111111"/><rect x="66" y="266" width="8" height="8" fill="#111111"/><rect x="86" y="266" width="8" height="8" fill="#111111"/><rect x="106" y="266" width="8" height="8" fill="#111111"/><rect x="126" y="266" width="8" height="8" fill="#111111"/><rect x="146" y="266" width="8" height="8" fill="#111111"/><rect x="166" y="266" width="8" height="8" fill="#111111"/><rect x="186" y="266" width="8" height="8" fill="#111111"/><rect x="206" y="266" width="8" height="8" fill="#111111"/><rect x="226" y="266" width="8" height="8" fill="#111111"/><rect x="246" y="266" width="8" height="8" fill="#111111"/><rect x="266" y="266" width="8" height="8" fill="#111111"/><rect x="286" y="266" width="8" height="8" fill="#111111"/><rect x="306" y="266" width="8" height="8" fill="#111111"/><rect x="326" y="266" width="8" height="8" fill="#111111"/><rect x="346" y="266" width="8" height="8" fill="#111111"/><rect x="366" y="266" width="8" height="8" fill="#111111"/><rect x="386" y="266" width="8" height="8" fill="#111111"/><rect x="406" y="266" width="8" height="8" fill="#111111"/><rect x="426" y="266" width="8" height="8" fill="#111111"/><rect x="446" y="266" width="8" height="8" fill="#111111"/><rect x="486" y="266" width="8" height="8" fill="#111111"/><rect x="526" y="266" width="8" height="8" fill="#111111"/><rect x="546" y="266" width="8" height="8" fill="#111111"/><rect x="566" y="266" width="8" height="8" fill="#111111"/><rect x="586" y="266" width="8" height="8" fill="#111111"/><rect x="606" y="266" width="8" height="8" fill="#111111"/><rect x="626" y="266" width="8" height="8" fill="#111111"/><rect x="646" y="266" width="8" height="8" fill="#111111"/><rect x="666" y="266" width="8" height="8" fill="#111111"/><rect x="686" y="266" width="8" height="8" fill="#111111"/><rect x="706" y="266" width="8" height="8" fill="#111111"/><rect x="746" y="266" width="8" height="8" fill="#111111"/><rect x="766" y="266" width="8" height="8" fill="#111111"/><rect x="786" y="266" width="8" height="8" fill="#111111"/><rect x="806" y="266" width="8" height="8" fill="#111111"/><rect x="826" y="266" width="8" height="8" fill="#111111"/><rect x="846" y="266" width="8" height="8" fill="#111111"/><rect x="866" y="266" width="8" height="8" fill="#111111"/><rect x="886" y="266" width="8" height="8" fill="#111111"/><rect x="906" y="266" width="8" height="8" fill="#111111"/><rect x="926" y="266" width="8" height="8" fill="#111111"/><rect x="946" y="266" width="8" height="8" fill="#111111"/><rect x="966" y="266" width="8" height="8" fill="#111111"/><rect x="986" y="266" width="8" height="8" fill="#111111"/><rect x="1006" y="266" width="8" height="8" fill="#111111"/><rect x="1026" y="266" width="8" height="8" fill="#111111"/><rect x="1046" y="266" width="8" height="8" fill="#111111"/><rect x="1066" y="266" width="8" height="8" fill="#111111"/><rect x="1086" y="266" width="8" height="8" fill="#111111"/><rect x="1106" y="266" width="8" height="8" fill="#111111"/><rect x="1126" y="266" width="8" height="8" fill="#111111"/><rect x="1146" y="266" width="8" height="8" fill="#111111"/><rect x="1166" y="266" width="8" height="8" fill="#111111"/><rect x="1186" y="266" width="8" height="8" fill="#111111"/><rect x="1206" y="266" width="8" height="8" fill="#111111"/><rect x="1226" y="266" width="8" height="8" fill="#111111"/><rect x="1246" y="266" width="8" height="8" fill="#111111"/><rect x="1286" y="266" width="8" height="8" fill="#111111"/><rect x="1326" y="266" width="8" height="8" fill="#111111"/><rect x="1366" y="266" width="8" height="8" fill="#111111"/><rect x="1386" y="266" width="8" height="8" fill="#111111"/><rect x="1406" y="266" width="8" height="8" fill="#111111"/><rect x="1446" y="266" width="8" height="8" fill="#111111"/><rect x="1486" y="266" width="8" height="8" fill="#111111"/><rect x="1506" y="266" width="8" height="8" fill="#111111"/><rect x="1526" y="266" width="8" height="8" fill="#111111"/><rect x="1546" y="266" width="8" height="8" fill="#111111"/><rect x="1566" y="266" width="8" height="8" fill="#111111"/><rect x="1586" y="266" width="8" height="8" fill="#111111"/><rect x="6" y="286" width="8" height="8" fill="#111111"/><rect x="26" y="286" width="8" height="8" fill="#111111"/><rect x="46" y="286" width="8" height="8" fill="#111111"/><rect x="66" y="286" width="8" height="8" fill="#111111"/><rect x="86" y="286" width="8" height="8" fill="#111111"/><rect x="106" y="286" width="8" height="8" fill="#111111"/><rect x="126" y="286" width="8" height="8" fill="#111111"/><rect x="146" y="286" width="8" height="8" fill="#111111"/><rect x="166" y="286" width="8" height="8" fill="#111111"/><rect x="186" y="286" width="8" height="8" fill="#111111"/><rect x="206" y="286" width="8" height="8" fill="#111111"/><rect x="226" y="286" width="8" height="8" fill="#111111"/><rect x="246" y="286" width="8" height="8" fill="#111111"/><rect x="266" y="286" width="8" height="8" fill="#111111"/><rect x="286" y="286" width="8" height="8" fill="#111111"/><rect x="306" y="286" width="8" height="8" fill="#111111"/><rect x="326" y="286" width="8" height="8" fill="#111111"/><rect x="346" y="286" width="8" height="8" fill="#111111"/><rect x="366" y="286" width="8" height="8" fill="#111111"/><rect x="386" y="286" width="8" height="8" fill="#111111"/><rect x="406" y="286" width="8" height="8" fill="#111111"/><rect x="426" y="286" width="8" height="8" fill="#111111"/><rect x="446" y="286" width="8" height="8" fill="#111111"/><rect x="466" y="286" width="8" height="8" fill="#111111"/><rect x="486" y="286" width="8" height="8" fill="#111111"/><rect x="506" y="286" width="8" height="8" fill="#111111"/><rect x="526" y="286" width="8" height="8" fill="#111111"/><rect x="546" y="286" width="8" height="8" fill="#111111"/><rect x="566" y="286" width="8" height="8" fill="#111111"/><rect x="586" y="286" width="8" height="8" fill="#111111"/><rect x="606" y="286" width="8" height="8" fill="#111111"/><rect x="626" y="286" width="8" height="8" fill="#111111"/><rect x="646" y="286" width="8" height="8" fill="#111111"/><rect x="686" y="286" width="8" height="8" fill="#111111"/><rect x="726" y="286" width="8" height="8" fill="#111111"/><rect x="746" y="286" width="8" height="8" fill="#111111"/><rect x="766" y="286" width="8" height="8" fill="#111111"/><rect x="786" y="286" width="8" height="8" fill="#111111"/><rect x="806" y="286" width="8" height="8" fill="#111111"/><rect x="826" y="286" width="8" height="8" fill="#111111"/><rect x="846" y="286" width="8" height="8" fill="#111111"/><rect x="866" y="286" width="8" height="8" fill="#111111"/><rect x="886" y="286" width="8" height="8" fill="#111111"/><rect x="906" y="286" width="8" height="8" fill="#111111"/><rect x="926" y="286" width="8" height="8" fill="#111111"/><rect x="946" y="286" width="8" height="8" fill="#111111"/><rect x="966" y="286" width="8" height="8" fill="#111111"/><rect x="986" y="286" width="8" height="8" fill="#111111"/><rect x="1006" y="286" width="8" height="8" fill="#111111"/><rect x="1026" y="286" width="8" height="8" fill="#111111"/><rect x="1046" y="286" width="8" height="8" fill="#111111"/><rect x="1066" y="286" width="8" height="8" fill="#111111"/><rect x="1086" y="286" width="8" height="8" fill="#111111"/><rect x="1106" y="286" width="8" height="8" fill="#111111"/><rect x="1166" y="286" width="8" height="8" fill="#111111"/><rect x="1186" y="286" width="8" height="8" fill="#111111"/><rect x="1206" y="286" width="8" height="8" fill="#111111"/><rect x="1226" y="286" width="8" height="8" fill="#111111"/><rect x="1246" y="286" width="8" height="8" fill="#111111"/><rect x="1266" y="286" width="8" height="8" fill="#111111"/><rect x="1286" y="286" width="8" height="8" fill="#111111"/><rect x="1306" y="286" width="8" height="8" fill="#111111"/><rect x="1326" y="286" width="8" height="8" fill="#111111"/><rect x="1346" y="286" width="8" height="8" fill="#111111"/><rect x="1386" y="286" width="8" height="8" fill="#111111"/><rect x="1406" y="286" width="8" height="8" fill="#111111"/><rect x="1426" y="286" width="8" height="8" fill="#111111"/><rect x="1446" y="286" width="8" height="8" fill="#111111"/><rect x="1466" y="286" width="8" height="8" fill="#111111"/><rect x="1486" y="286" width="8" height="8" fill="#111111"/><rect x="1506" y="286" width="8" height="8" fill="#111111"/><rect x="1526" y="286" width="8" height="8" fill="#111111"/><rect x="1566" y="286" width="8" height="8" fill="#111111"/><rect x="1586" y="286" width="8" height="8" fill="#111111"/></svg>